<svg aria-hidden="true" style="position: absolute; width: 0; height: 0; overflow: hidden;" version="1.1" xmlns="http://www.w3.org/2000/svg" xmlns:xlink="http://www.w3.org/1999/xlink">
	<defs>
    <symbol id="icon-phone-book" viewBox="0 0 32 32">
<path fill="#f44336" style="fill: var(--color1, #f44336)" d="M29.406 8.921v5.296h-4.138v-8.959h0.469c2.024 0 3.665 1.639 3.669 3.663v0z"></path>
<path fill="#558b2f" style="fill: var(--color2, #558b2f)" d="M29.406 20.427v4.777c-0.002 1.599-1.025 2.958-2.451 3.462l-0.026 0.008c-0.355 0.127-0.764 0.2-1.19 0.2-0.001 0-0.002 0-0.003 0h-0.469v-8.447z"></path>
<path fill="#ff9800" style="fill: var(--color3, #ff9800)" d="M25.268 13.279h4.138v8.086h-4.138z"></path>
<path fill="#000" style="fill: var(--color4, #000)" opacity="0.2" d="M26.929 5.455v23.22c-0.355 0.127-0.764 0.2-1.19 0.2-0.001 0-0.002 0-0.003 0h-0.469v-23.617h0.469c0.002 0 0.003 0 0.005 0 0.425 0 0.833 0.072 1.213 0.205l-0.026-0.008z"></path>
<path fill="#3b82ea" style="fill: var(--color5, #3b82ea)" d="M26.208 0.704v30.591c-0.002 0.342-0.279 0.619-0.621 0.621h-22.375c-0.342-0.002-0.619-0.279-0.621-0.62v-30.591c0.002-0.342 0.279-0.619 0.621-0.621h22.375c0.342 0.002 0.619 0.279 0.621 0.62v0z"></path>
<path fill="#2e76cc" style="fill: var(--color6, #2e76cc)" d="M22.375 21.791c-0.297 0.745-1.029 1.272-1.866 1.334-0.118 0.009-0.25 0.014-0.384 0.014-2.063 0-6.139-1.086-9.591-4.229l-0.013-0.012c-3.694-3.631-4.178-7.102-4.137-8.848 0.019-0.839 0.5-1.599 1.23-1.938 0.885-0.408 1.943-0.64 3.679 0.419 0.016 0.009 0.029 0.018 0.041 0.028l-0.001-0.001c0.439 0.367 0.787 0.827 1.016 1.351l0.009 0.024c0.337 0.801 0.5 2.073-0.638 3.591-0.125 0.164-0.2 0.371-0.2 0.596 0 0.21 0.066 0.405 0.177 0.565l-0.002-0.003c1.464 2.111 2.991 3.504 4.193 3.821 0.033 0.009 0.070 0.014 0.108 0.014 0.119 0 0.227-0.048 0.306-0.125l-0 0c0.942-0.948 1.926-1.427 2.927-1.427h0.117c1.433 0.054 2.335 1.087 2.375 1.132 0.011 0.012 0.021 0.026 0.030 0.039 1.151 1.675 0.978 2.747 0.621 3.653z"></path>
<path fill="#dff2fd" style="fill: var(--color7, #dff2fd)" d="M22.5 21.353c-0.297 0.745-1.029 1.272-1.866 1.334-0.118 0.009-0.25 0.014-0.384 0.014-2.063 0-6.139-1.086-9.591-4.229l-0.013-0.012c-3.694-3.631-4.178-7.102-4.137-8.848 0.019-0.839 0.5-1.599 1.23-1.938 0.885-0.408 1.943-0.64 3.679 0.419 0.016 0.009 0.029 0.018 0.041 0.028l-0.001-0.001c0.439 0.367 0.787 0.827 1.016 1.351l0.009 0.024c0.337 0.801 0.5 2.073-0.638 3.591-0.125 0.164-0.2 0.371-0.2 0.596 0 0.21 0.066 0.405 0.177 0.565l-0.002-0.003c1.464 2.111 2.991 3.504 4.193 3.821 0.032 0.009 0.070 0.014 0.108 0.014 0.119 0 0.227-0.048 0.306-0.125l-0 0c0.942-0.948 1.926-1.427 2.927-1.427h0.117c1.433 0.054 2.335 1.087 2.375 1.132 0.011 0.012 0.021 0.026 0.030 0.039 1.151 1.675 0.978 2.747 0.621 3.653z"></path>
<path fill="#2e77ce" style="fill: var(--color8, #2e77ce)" d="M3.902 31.916h-0.688c-0.342-0.002-0.619-0.279-0.621-0.62v-30.591c0.002-0.342 0.279-0.619 0.621-0.621h0.688c-0.342 0.002-0.619 0.279-0.621 0.62v30.591c0.002 0.342 0.279 0.619 0.621 0.621h0z"></path>
</symbol>
    </defs>
    </svg>